# xmcd
# Track frame offsets:
# 150
# 16428
# 30695
# 47420
# 63552
# 77054
# 93883
# 110905
# 130110
# 152774
# 166306
# 185179
# 198789
# 211410
# 227622
#
# Disc length: 3300 seconds
# Revision: 0
# Processed by: cddbd v1.5.2PL0 Copyright (c) Steve Scherf et al.
# Submitted via: VisiTrax 2.11.1.266 - For more info visit www.synapsa.com
#
DISCID=c50ce20f
DTITLE=Millington. Col - Down Mexico
DYEAR=2010
DGENRE=
TTITLE0=Millington.Col - Down to Mexico
TTITLE1=Millington.Col - Say that you love me
TTITLE2=Millington.Col - Did I tell you (Yellow Roses)
TTITLE3=Millington.Col - The Ghost of the Stockman
TTITLE4=Millington.Col - We're good together
TTITLE5=Millington.Col - Strictly in love with you
TTITLE6=Millington.Col - Where do we go from here
TTITLE7=Millington.Col - I'm not in it for the money
TTITLE8=Millington.Col - Smokey, Buddy, Tex and Slim
TTITLE9=Millington.Col - I really do
TTITLE10=Millington.Col - Loving you was a nightmare
TTITLE11=Millington.Col - I'll sing you a love song
TTITLE12=Millington.Col - Let's get together
TTITLE13=Millington.Col - The tears will flow
TTITLE14=Millington.Col - Dream, Sweet dreams of you
EXTD=
EXTT0=
EXTT1=
EXTT2=
EXTT3=
EXTT4=
EXTT5=
EXTT6=
EXTT7=
EXTT8=
EXTT9=
EXTT10=
EXTT11=
EXTT12=
EXTT13=
EXTT14=
PLAYORDER=
